<svg xmlns="http://www.w3.org/2000/svg" width="190" height="186" viewBox="0 0 190 186" version="1.1">
	<path d="M 82.500 1.843 C 84.150 2.883, 86.445 4.806, 87.599 6.117 C 90.059 8.909, 112.004 47.029, 111.999 48.500 C 111.997 49.050, 109.426 50.842, 106.286 52.483 L 100.577 55.467 105.294 56.257 C 107.889 56.692, 117.478 56.925, 126.604 56.774 L 143.196 56.500 147.910 48 C 150.503 43.325, 154.121 36.800, 155.949 33.500 C 157.778 30.200, 160.441 25.484, 161.867 23.020 L 164.459 18.541 159.480 21.439 C 156.741 23.033, 153.733 24.807, 152.795 25.381 C 150.721 26.651, 151.538 27.639, 144.145 14.902 C 140.762 9.074, 137.049 3.449, 135.894 2.402 C 133.955 0.646, 131.707 0.479, 106.647 0.226 C 79.684 -0.045, 79.520 -0.034, 82.500 1.843 M 60.791 2.988 C 54.913 4.761, 52.059 8.174, 42.069 25.382 C 36.531 34.920, 32 43.142, 32 43.652 C 32 45.248, 69.221 66.179, 70.243 65.157 C 70.757 64.643, 76.263 55.412, 82.480 44.643 L 93.783 25.063 88.898 17.126 C 86.212 12.761, 82.647 8.039, 80.976 6.633 C 76.040 2.480, 67.559 0.948, 60.791 2.988 M 149.507 68.531 C 139.610 74.267, 131.366 79.402, 131.186 79.941 C 131.006 80.481, 132.480 83.753, 134.460 87.211 C 136.441 90.670, 141.561 99.575, 145.838 107 L 153.615 120.500 162.057 120.813 C 171.305 121.156, 176.749 119.979, 181.257 116.662 C 184.513 114.266, 189 107.278, 189 104.603 C 189 103.656, 189.450 103.160, 190 103.500 C 191.622 104.502, 191.149 99.891, 189.078 94.500 C 186.841 88.677, 169.683 58.703, 168.382 58.345 C 167.897 58.212, 159.403 62.796, 149.507 68.531 M 6.200 67.889 L 1.899 68.500 7.450 71.806 C 10.502 73.624, 13 75.385, 13 75.719 C 13 76.052, 10.300 81.129, 7 87 C -1.689 102.458, -1.818 101.602, 13.105 127.500 C 19.761 139.050, 25.610 148.928, 26.103 149.450 C 26.642 150.021, 27 148.984, 27 146.849 C 27 144.896, 27.532 141.769, 28.182 139.899 C 29.089 137.293, 50.030 99.912, 51.578 98.135 C 51.753 97.934, 54.908 99.454, 58.589 101.512 L 65.281 105.255 60.931 97.377 C 58.539 93.045, 53.858 84.550, 50.529 78.500 L 44.477 67.500 27.488 67.389 C 18.145 67.328, 8.565 67.553, 6.200 67.889 M 112.664 129.805 L 101.828 148.093 111.901 164.932 C 117.442 174.194, 122.318 182.611, 122.738 183.636 C 123.227 184.832, 123.679 182.813, 124 178 L 124.500 170.500 138.500 170 C 146.356 169.719, 153.387 168.990, 154.521 168.337 C 156.053 167.456, 179.890 127.703, 181.861 122.742 C 182.060 122.243, 180.710 122.659, 178.861 123.667 C 175.897 125.283, 172.460 125.537, 149.795 125.811 L 124.090 126.122 123.795 118.820 L 123.500 111.517 112.664 129.805 M 37.060 133.391 C 32.128 142.326, 30.889 147.965, 32.481 154.234 C 34.025 160.314, 36.205 163.445, 41.198 166.752 L 45.347 169.500 67.174 169.804 L 89 170.108 89 148.054 L 89 126 65.070 126 L 41.140 126 37.060 133.391" stroke="none" fill="black" fill-rule="evenodd"/>
</svg>